<?xml version="1.0"?>
<svg xmlns="http://www.w3.org/2000/svg" width="120mm" height="330mm" viewBox="0 0 120 330" version="1.1">
  <rect x="0" y="0" width="120" height="330" fill="white"/>
  <rect x="0" y="300" width="60" height="30" style="stroke:lightgray;fill:none;stroke-width:1" transform=""/>
  <text x="30.0" y="315.0" text-anchor="middle" alignment-baseline="central" transform="">1910</text>
  <rect x="0" y="270" width="60" height="30" style="stroke:lightgray;fill:none;stroke-width:1" transform=""/>
  <text x="30.0" y="285.0" text-anchor="middle" alignment-baseline="central" transform="">1920</text>
  <rect x="0" y="240" width="60" height="30" style="stroke:lightgray;fill:none;stroke-width:1" transform=""/>
  <text x="30.0" y="255.0" text-anchor="middle" alignment-baseline="central" transform="">1930</text>
  <rect x="0" y="210" width="60" height="30" style="stroke:lightgray;fill:none;stroke-width:1" transform=""/>
  <text x="30.0" y="225.0" text-anchor="middle" alignment-baseline="central" transform="">1940</text>
  <rect x="0" y="180" width="60" height="30" style="stroke:lightgray;fill:none;stroke-width:1" transform=""/>
  <text x="30.0" y="195.0" text-anchor="middle" alignment-baseline="central" transform="">1950</text>
  <rect x="0" y="150" width="60" height="30" style="stroke:lightgray;fill:none;stroke-width:1" transform=""/>
  <text x="30.0" y="165.0" text-anchor="middle" alignment-baseline="central" transform="">1960</text>
  <rect x="0" y="120" width="60" height="30" style="stroke:lightgray;fill:none;stroke-width:1" transform=""/>
  <text x="30.0" y="135.0" text-anchor="middle" alignment-baseline="central" transform="">1970</text>
  <rect x="0" y="90" width="60" height="30" style="stroke:lightgray;fill:none;stroke-width:1" transform=""/>
  <text x="30.0" y="105.0" text-anchor="middle" alignment-baseline="central" transform="">1980</text>
  <rect x="0" y="60" width="60" height="30" style="stroke:lightgray;fill:none;stroke-width:1" transform=""/>
  <text x="30.0" y="75.0" text-anchor="middle" alignment-baseline="central" transform="">1990</text>
  <rect x="0" y="30" width="60" height="30" style="stroke:lightgray;fill:none;stroke-width:1" transform=""/>
  <text x="30.0" y="45.0" text-anchor="middle" alignment-baseline="central" transform="">2000</text>
  <rect x="0" y="0" width="60" height="30" style="stroke:lightgray;fill:none;stroke-width:1" transform=""/>
  <text x="30.0" y="15.0" text-anchor="middle" alignment-baseline="central" transform="">2010</text>
  <path d="M 0 60 L 60 60" stroke="black" fill="none" stroke-dasharray="5,5"/>
  <rect x="60" y="9" width="138" height="30" style="stroke:black;fill:#009900;stroke-width:1" transform="translate(75,24) rotate(90) translate(-75,-24)"/>
  <text x="129.0" y="24.0" text-anchor="middle" alignment-baseline="central" transform="translate(75,24) rotate(90) translate(-75,-24)">Elon Musk</text>
  <rect x="90" y="21" width="285" height="30" style="stroke:black;fill:#66CCFF;stroke-width:1" transform="translate(105,36) rotate(90) translate(-105,-36)"/>
  <text x="232.5" y="36.0" text-anchor="middle" alignment-baseline="central" transform="translate(105,36) rotate(90) translate(-105,-36)">Nelson Mandela</text>
  <rect x="60" y="0" width="60" height="9" style="stroke:gray;fill:gray" transform=""/>
  <rect x="0" y="0" width="120" height="330" stroke="black" stroke-width="1" fill="none"/>
</svg>

